<mxfile host="Electron" agent="Mozilla/5.0 (Windows NT 10.0; Win64; x64) AppleWebKit/537.36 (KHTML, like Gecko) draw.io/27.0.9 Chrome/134.0.6998.205 Electron/35.4.0 Safari/537.36" version="27.0.9">
  <diagram name="Страница — 1" id="mSqwyhta2Jd2Hh7x8no9">
    <mxGraphModel dx="1371" dy="889" grid="0" gridSize="10" guides="1" tooltips="1" connect="1" arrows="1" fold="1" page="1" pageScale="1" pageWidth="827" pageHeight="1169" math="0" shadow="0">
      <root>
        <mxCell id="0" />
        <mxCell id="1" parent="0" />
        <mxCell id="W2uqgp0mOW6nzZjrebEl-23" style="edgeStyle=orthogonalEdgeStyle;rounded=0;orthogonalLoop=1;jettySize=auto;html=1;exitX=0.5;exitY=1;exitDx=0;exitDy=0;entryX=0.5;entryY=0;entryDx=0;entryDy=0;" parent="1" source="W2uqgp0mOW6nzZjrebEl-1" target="W2uqgp0mOW6nzZjrebEl-2" edge="1">
          <mxGeometry relative="1" as="geometry" />
        </mxCell>
        <mxCell id="W2uqgp0mOW6nzZjrebEl-1" value="&lt;font face=&quot;Times New Roman&quot;&gt;Начало&lt;/font&gt;" style="ellipse;whiteSpace=wrap;html=1;" parent="1" vertex="1">
          <mxGeometry x="90" y="80" width="120" height="60" as="geometry" />
        </mxCell>
        <mxCell id="W2uqgp0mOW6nzZjrebEl-2" value="&lt;font face=&quot;Times New Roman&quot;&gt;Ввод&lt;/font&gt;&lt;div&gt;&lt;font face=&quot;Times New Roman&quot;&gt;длины массива n&lt;/font&gt;&lt;/div&gt;" style="shape=parallelogram;perimeter=parallelogramPerimeter;whiteSpace=wrap;html=1;fixedSize=1;" parent="1" vertex="1">
          <mxGeometry x="90" y="160" width="120" height="60" as="geometry" />
        </mxCell>
        <mxCell id="W2uqgp0mOW6nzZjrebEl-3" style="edgeStyle=orthogonalEdgeStyle;rounded=0;orthogonalLoop=1;jettySize=auto;html=1;exitX=0.5;exitY=1;exitDx=0;exitDy=0;entryX=0.5;entryY=0;entryDx=0;entryDy=0;" parent="1" source="W2uqgp0mOW6nzZjrebEl-5" edge="1">
          <mxGeometry relative="1" as="geometry">
            <mxPoint x="149.5" y="340" as="targetPoint" />
          </mxGeometry>
        </mxCell>
        <mxCell id="W2uqgp0mOW6nzZjrebEl-4" style="edgeStyle=orthogonalEdgeStyle;rounded=0;orthogonalLoop=1;jettySize=auto;html=1;exitX=1;exitY=0.5;exitDx=0;exitDy=0;" parent="1" source="W2uqgp0mOW6nzZjrebEl-5" edge="1">
          <mxGeometry relative="1" as="geometry">
            <mxPoint x="149.5" y="460" as="targetPoint" />
            <mxPoint x="214.5" y="240" as="sourcePoint" />
            <Array as="points">
              <mxPoint x="234.5" y="270" />
              <mxPoint x="234.5" y="440" />
              <mxPoint x="149.5" y="440" />
              <mxPoint x="149.5" y="460" />
            </Array>
          </mxGeometry>
        </mxCell>
        <mxCell id="W2uqgp0mOW6nzZjrebEl-5" value="&lt;span style=&quot;text-align: left;&quot;&gt;n - число &amp;lt;= 0?&lt;/span&gt;" style="rhombus;whiteSpace=wrap;html=1;fontFamily=Times New Roman;" parent="1" vertex="1">
          <mxGeometry x="94.5" y="240" width="110" height="60" as="geometry" />
        </mxCell>
        <mxCell id="W2uqgp0mOW6nzZjrebEl-6" value="" style="endArrow=classic;html=1;rounded=0;" parent="1" edge="1">
          <mxGeometry width="50" height="50" relative="1" as="geometry">
            <mxPoint x="149" y="220" as="sourcePoint" />
            <mxPoint x="149" y="240" as="targetPoint" />
          </mxGeometry>
        </mxCell>
        <mxCell id="W2uqgp0mOW6nzZjrebEl-7" style="edgeStyle=orthogonalEdgeStyle;rounded=0;orthogonalLoop=1;jettySize=auto;html=1;entryX=0;entryY=0.5;entryDx=0;entryDy=0;" parent="1" target="W2uqgp0mOW6nzZjrebEl-5" edge="1">
          <mxGeometry relative="1" as="geometry">
            <Array as="points">
              <mxPoint x="150" y="420" />
              <mxPoint x="75" y="420" />
              <mxPoint x="75" y="270" />
            </Array>
            <mxPoint x="150" y="401" as="sourcePoint" />
          </mxGeometry>
        </mxCell>
        <mxCell id="W2uqgp0mOW6nzZjrebEl-8" value="Создание массива&amp;nbsp;&lt;code data-start=&quot;364&quot; data-end=&quot;373&quot;&gt;numbers&lt;/code&gt;&lt;div&gt;длины&amp;nbsp;&lt;code data-start=&quot;380&quot; data-end=&quot;383&quot;&gt;n&lt;/code&gt;&lt;/div&gt;" style="rounded=0;whiteSpace=wrap;html=1;fontFamily=Times New Roman;" parent="1" vertex="1">
          <mxGeometry x="94.5" y="340" width="110" height="60" as="geometry" />
        </mxCell>
        <mxCell id="W2uqgp0mOW6nzZjrebEl-9" style="edgeStyle=orthogonalEdgeStyle;rounded=0;orthogonalLoop=1;jettySize=auto;html=1;exitX=0.5;exitY=1;exitDx=0;exitDy=0;" parent="1" source="W2uqgp0mOW6nzZjrebEl-11" edge="1">
          <mxGeometry relative="1" as="geometry">
            <mxPoint x="149" y="540" as="targetPoint" />
          </mxGeometry>
        </mxCell>
        <mxCell id="W2uqgp0mOW6nzZjrebEl-10" style="edgeStyle=orthogonalEdgeStyle;rounded=0;orthogonalLoop=1;jettySize=auto;html=1;exitX=1;exitY=0.5;exitDx=0;exitDy=0;" parent="1" source="W2uqgp0mOW6nzZjrebEl-11" edge="1">
          <mxGeometry relative="1" as="geometry">
            <mxPoint x="150" y="780" as="targetPoint" />
            <Array as="points">
              <mxPoint x="270" y="490" />
              <mxPoint x="270" y="760" />
              <mxPoint x="150" y="760" />
            </Array>
          </mxGeometry>
        </mxCell>
        <mxCell id="W2uqgp0mOW6nzZjrebEl-11" value="&lt;font face=&quot;Times New Roman&quot;&gt;for (int i = 0;&lt;/font&gt;&lt;div&gt;&lt;font face=&quot;Times New Roman&quot;&gt;i &amp;lt; n; i++)&lt;/font&gt;&lt;/div&gt;" style="shape=hexagon;perimeter=hexagonPerimeter2;whiteSpace=wrap;html=1;fixedSize=1;" parent="1" vertex="1">
          <mxGeometry x="94.24000000000001" y="460" width="110" height="60" as="geometry" />
        </mxCell>
        <mxCell id="W2uqgp0mOW6nzZjrebEl-12" style="edgeStyle=orthogonalEdgeStyle;rounded=0;orthogonalLoop=1;jettySize=auto;html=1;entryX=0;entryY=0.5;entryDx=0;entryDy=0;" parent="1" target="W2uqgp0mOW6nzZjrebEl-11" edge="1">
          <mxGeometry relative="1" as="geometry">
            <Array as="points">
              <mxPoint x="40" y="750" />
              <mxPoint x="40" y="490" />
            </Array>
            <mxPoint x="150" y="750" as="sourcePoint" />
          </mxGeometry>
        </mxCell>
        <mxCell id="W2uqgp0mOW6nzZjrebEl-15" style="edgeStyle=orthogonalEdgeStyle;rounded=0;orthogonalLoop=1;jettySize=auto;html=1;exitX=0.5;exitY=1;exitDx=0;exitDy=0;entryX=0.5;entryY=0;entryDx=0;entryDy=0;" parent="1" source="W2uqgp0mOW6nzZjrebEl-17" edge="1">
          <mxGeometry relative="1" as="geometry">
            <mxPoint x="149.49" y="640" as="targetPoint" />
          </mxGeometry>
        </mxCell>
        <mxCell id="W2uqgp0mOW6nzZjrebEl-16" style="edgeStyle=orthogonalEdgeStyle;rounded=0;orthogonalLoop=1;jettySize=auto;html=1;exitX=1;exitY=0.5;exitDx=0;exitDy=0;" parent="1" source="W2uqgp0mOW6nzZjrebEl-17" edge="1">
          <mxGeometry relative="1" as="geometry">
            <mxPoint x="150" y="750" as="targetPoint" />
            <mxPoint x="208.49" y="580" as="sourcePoint" />
            <Array as="points">
              <mxPoint x="240" y="580" />
              <mxPoint x="240" y="730" />
              <mxPoint x="150" y="730" />
            </Array>
          </mxGeometry>
        </mxCell>
        <mxCell id="W2uqgp0mOW6nzZjrebEl-17" value="&lt;font&gt;Пока&lt;/font&gt;&lt;div&gt;&lt;font&gt;не&amp;nbsp;&lt;/font&gt;&lt;span style=&quot;background-color: transparent; color: light-dark(rgb(0, 0, 0), rgb(255, 255, 255));&quot;&gt;удалось преобразовать&lt;/span&gt;&lt;div&gt;&lt;div&gt;&lt;font&gt;ввод&lt;/font&gt;&lt;/div&gt;&lt;/div&gt;&lt;/div&gt;" style="rhombus;whiteSpace=wrap;html=1;fontFamily=Times New Roman;" parent="1" vertex="1">
          <mxGeometry x="94.49000000000001" y="540" width="110" height="80" as="geometry" />
        </mxCell>
        <mxCell id="W2uqgp0mOW6nzZjrebEl-19" style="edgeStyle=orthogonalEdgeStyle;rounded=0;orthogonalLoop=1;jettySize=auto;html=1;entryX=0;entryY=0.5;entryDx=0;entryDy=0;exitX=0.496;exitY=0.876;exitDx=0;exitDy=0;exitPerimeter=0;" parent="1" edge="1" source="U2_r856wV2qcEGmNiE-3-1">
          <mxGeometry relative="1" as="geometry">
            <Array as="points">
              <mxPoint x="150" y="720" />
              <mxPoint x="70" y="720" />
              <mxPoint x="70" y="580" />
            </Array>
            <mxPoint x="149.96000000000004" y="701" as="sourcePoint" />
            <mxPoint x="94.46000000000004" y="580" as="targetPoint" />
          </mxGeometry>
        </mxCell>
        <mxCell id="W2uqgp0mOW6nzZjrebEl-21" value="" style="endArrow=none;html=1;rounded=0;exitX=1;exitY=0.5;exitDx=0;exitDy=0;entryX=0;entryY=0.5;entryDx=0;entryDy=0;entryPerimeter=0;" parent="1" source="W2uqgp0mOW6nzZjrebEl-11" target="W2uqgp0mOW6nzZjrebEl-22" edge="1">
          <mxGeometry width="50" height="50" relative="1" as="geometry">
            <mxPoint x="260" y="480" as="sourcePoint" />
            <mxPoint x="260" y="470" as="targetPoint" />
          </mxGeometry>
        </mxCell>
        <mxCell id="W2uqgp0mOW6nzZjrebEl-22" value="Ввод элементов массива" style="strokeWidth=1;html=1;shape=mxgraph.flowchart.annotation_1;align=left;pointerEvents=1;spacing=2;fontFamily=Times New Roman;" parent="1" vertex="1">
          <mxGeometry x="280" y="440" width="20" height="30" as="geometry" />
        </mxCell>
        <mxCell id="W2uqgp0mOW6nzZjrebEl-24" style="edgeStyle=orthogonalEdgeStyle;rounded=0;orthogonalLoop=1;jettySize=auto;html=1;exitX=0.5;exitY=1;exitDx=0;exitDy=0;entryX=0.5;entryY=0;entryDx=0;entryDy=0;" parent="1" source="W2uqgp0mOW6nzZjrebEl-26" edge="1">
          <mxGeometry relative="1" as="geometry">
            <mxPoint x="525.25" y="632.5" as="targetPoint" />
          </mxGeometry>
        </mxCell>
        <mxCell id="W2uqgp0mOW6nzZjrebEl-25" style="edgeStyle=orthogonalEdgeStyle;rounded=0;orthogonalLoop=1;jettySize=auto;html=1;exitX=1;exitY=0.5;exitDx=0;exitDy=0;" parent="1" source="W2uqgp0mOW6nzZjrebEl-26" edge="1">
          <mxGeometry relative="1" as="geometry">
            <mxPoint x="525.25" y="752.5" as="targetPoint" />
            <Array as="points">
              <mxPoint x="611.25" y="562.5" />
              <mxPoint x="611.25" y="732.5" />
              <mxPoint x="525.25" y="732.5" />
            </Array>
          </mxGeometry>
        </mxCell>
        <mxCell id="W2uqgp0mOW6nzZjrebEl-26" value="&lt;font&gt;for (int i = 0; i &amp;lt; n; i++)&lt;/font&gt;" style="shape=hexagon;perimeter=hexagonPerimeter2;whiteSpace=wrap;html=1;fixedSize=1;fontFamily=Times New Roman;" parent="1" vertex="1">
          <mxGeometry x="470.25" y="532.5" width="110" height="60" as="geometry" />
        </mxCell>
        <mxCell id="W2uqgp0mOW6nzZjrebEl-27" style="edgeStyle=orthogonalEdgeStyle;rounded=0;orthogonalLoop=1;jettySize=auto;html=1;entryX=0;entryY=0.5;entryDx=0;entryDy=0;" parent="1" target="W2uqgp0mOW6nzZjrebEl-26" edge="1">
          <mxGeometry relative="1" as="geometry">
            <Array as="points">
              <mxPoint x="525.75" y="712.5" />
              <mxPoint x="450.75" y="712.5" />
              <mxPoint x="450.75" y="562.5" />
            </Array>
            <mxPoint x="525.75" y="692.5" as="sourcePoint" />
          </mxGeometry>
        </mxCell>
        <mxCell id="W2uqgp0mOW6nzZjrebEl-29" value="&lt;div&gt;&lt;font&gt;Console.Write&lt;/font&gt;&lt;/div&gt;&lt;div&gt;&lt;font&gt;(numbers[i]);&lt;/font&gt;&lt;/div&gt;&lt;div&gt;&lt;font&gt;if (i &amp;lt; n - 1) Console.Write(&quot;, &quot;);&lt;/font&gt;&lt;/div&gt;" style="rounded=0;whiteSpace=wrap;html=1;fontFamily=Times New Roman;" parent="1" vertex="1">
          <mxGeometry x="470.25" y="632.5" width="110" height="60" as="geometry" />
        </mxCell>
        <mxCell id="W2uqgp0mOW6nzZjrebEl-31" value="Вывод массива" style="strokeWidth=1;html=1;shape=mxgraph.flowchart.annotation_1;align=left;pointerEvents=1;spacing=2;fontFamily=Times New Roman;" parent="1" vertex="1">
          <mxGeometry x="655" y="602.5" width="20" height="30" as="geometry" />
        </mxCell>
        <mxCell id="W2uqgp0mOW6nzZjrebEl-32" value="" style="endArrow=none;html=1;rounded=0;exitX=1;exitY=0.5;exitDx=0;exitDy=0;entryX=0;entryY=0.5;entryDx=0;entryDy=0;entryPerimeter=0;" parent="1" source="W2uqgp0mOW6nzZjrebEl-29" target="W2uqgp0mOW6nzZjrebEl-31" edge="1">
          <mxGeometry width="50" height="50" relative="1" as="geometry">
            <mxPoint x="635" y="722.5" as="sourcePoint" />
            <mxPoint x="685" y="672.5" as="targetPoint" />
          </mxGeometry>
        </mxCell>
        <mxCell id="W2uqgp0mOW6nzZjrebEl-35" style="edgeStyle=orthogonalEdgeStyle;rounded=0;orthogonalLoop=1;jettySize=auto;html=1;exitX=0.5;exitY=1;exitDx=0;exitDy=0;entryX=0.5;entryY=0;entryDx=0;entryDy=0;" parent="1" source="W2uqgp0mOW6nzZjrebEl-37" edge="1">
          <mxGeometry relative="1" as="geometry">
            <mxPoint x="524.5" y="852.5" as="targetPoint" />
          </mxGeometry>
        </mxCell>
        <mxCell id="W2uqgp0mOW6nzZjrebEl-36" style="edgeStyle=orthogonalEdgeStyle;rounded=0;orthogonalLoop=1;jettySize=auto;html=1;exitX=1;exitY=0.5;exitDx=0;exitDy=0;" parent="1" source="W2uqgp0mOW6nzZjrebEl-37" edge="1">
          <mxGeometry relative="1" as="geometry">
            <mxPoint x="524.5" y="972.5" as="targetPoint" />
            <Array as="points">
              <mxPoint x="610.5" y="782.5" />
              <mxPoint x="610.5" y="952.5" />
              <mxPoint x="524.5" y="952.5" />
            </Array>
          </mxGeometry>
        </mxCell>
        <mxCell id="W2uqgp0mOW6nzZjrebEl-37" value="&lt;font face=&quot;Times New Roman&quot;&gt;for (int i = 1;&lt;/font&gt;&lt;div&gt;&lt;font face=&quot;Times New Roman&quot;&gt;i &amp;lt; n; i++)&lt;/font&gt;&lt;/div&gt;" style="shape=hexagon;perimeter=hexagonPerimeter2;whiteSpace=wrap;html=1;fixedSize=1;" parent="1" vertex="1">
          <mxGeometry x="469.5" y="752.5" width="110" height="60" as="geometry" />
        </mxCell>
        <mxCell id="W2uqgp0mOW6nzZjrebEl-38" style="edgeStyle=orthogonalEdgeStyle;rounded=0;orthogonalLoop=1;jettySize=auto;html=1;entryX=0;entryY=0.5;entryDx=0;entryDy=0;" parent="1" target="W2uqgp0mOW6nzZjrebEl-37" edge="1">
          <mxGeometry relative="1" as="geometry">
            <Array as="points">
              <mxPoint x="525" y="932.5" />
              <mxPoint x="450" y="932.5" />
              <mxPoint x="450" y="782.5" />
            </Array>
            <mxPoint x="525" y="912.5" as="sourcePoint" />
          </mxGeometry>
        </mxCell>
        <mxCell id="W2uqgp0mOW6nzZjrebEl-40" value="&lt;font face=&quot;Times New Roman&quot;&gt;Поиск макс. и мин. элементов&lt;/font&gt;" style="rounded=0;whiteSpace=wrap;html=1;" parent="1" vertex="1">
          <mxGeometry x="469.5" y="852.5" width="110" height="60" as="geometry" />
        </mxCell>
        <mxCell id="W2uqgp0mOW6nzZjrebEl-44" style="edgeStyle=orthogonalEdgeStyle;rounded=0;orthogonalLoop=1;jettySize=auto;html=1;exitX=0.506;exitY=0.823;exitDx=0;exitDy=0;entryX=0.5;entryY=0;entryDx=0;entryDy=0;exitPerimeter=0;" parent="1" source="U2_r856wV2qcEGmNiE-3-2" target="W2uqgp0mOW6nzZjrebEl-42" edge="1">
          <mxGeometry relative="1" as="geometry">
            <mxPoint x="525.25" y="1032.5" as="sourcePoint" />
          </mxGeometry>
        </mxCell>
        <mxCell id="W2uqgp0mOW6nzZjrebEl-42" value="&lt;font face=&quot;Times New Roman&quot;&gt;Конец&lt;/font&gt;" style="ellipse;whiteSpace=wrap;html=1;" parent="1" vertex="1">
          <mxGeometry x="465.24" y="1052.5" width="120" height="60" as="geometry" />
        </mxCell>
        <mxCell id="W2uqgp0mOW6nzZjrebEl-45" value="&lt;font face=&quot;Times New Roman&quot;&gt;&lt;span style=&quot;font-size: 11px;&quot;&gt;1&lt;/span&gt;&lt;/font&gt;" style="ellipse;whiteSpace=wrap;html=1;aspect=fixed;" parent="1" vertex="1">
          <mxGeometry x="134.24" y="780" width="30" height="30" as="geometry" />
        </mxCell>
        <mxCell id="W2uqgp0mOW6nzZjrebEl-47" style="edgeStyle=orthogonalEdgeStyle;rounded=0;orthogonalLoop=1;jettySize=auto;html=1;exitX=0.5;exitY=1;exitDx=0;exitDy=0;entryX=0.5;entryY=0;entryDx=0;entryDy=0;" parent="1" source="W2uqgp0mOW6nzZjrebEl-46" target="W2uqgp0mOW6nzZjrebEl-26" edge="1">
          <mxGeometry relative="1" as="geometry" />
        </mxCell>
        <mxCell id="W2uqgp0mOW6nzZjrebEl-46" value="&lt;font face=&quot;Times New Roman&quot;&gt;&lt;span style=&quot;font-size: 11px;&quot;&gt;1&lt;/span&gt;&lt;/font&gt;" style="ellipse;whiteSpace=wrap;html=1;aspect=fixed;" parent="1" vertex="1">
          <mxGeometry x="510.25" y="477.5" width="30" height="30" as="geometry" />
        </mxCell>
        <mxCell id="W2uqgp0mOW6nzZjrebEl-48" value="while (!double.TryParse&lt;div&gt;(Console.ReadLine(),&lt;div&gt;out numbers[i]))&lt;/div&gt;&lt;/div&gt;" style="strokeWidth=1;html=1;shape=mxgraph.flowchart.annotation_1;align=left;pointerEvents=1;spacing=2;fontFamily=Times New Roman;" parent="1" vertex="1">
          <mxGeometry x="280" y="540" width="20" height="50" as="geometry" />
        </mxCell>
        <mxCell id="W2uqgp0mOW6nzZjrebEl-49" value="" style="endArrow=none;html=1;rounded=0;exitX=1;exitY=0.5;exitDx=0;exitDy=0;entryX=0;entryY=0.5;entryDx=0;entryDy=0;entryPerimeter=0;" parent="1" source="W2uqgp0mOW6nzZjrebEl-17" target="W2uqgp0mOW6nzZjrebEl-48" edge="1">
          <mxGeometry width="50" height="50" relative="1" as="geometry">
            <mxPoint x="280" y="870" as="sourcePoint" />
            <mxPoint x="330" y="820" as="targetPoint" />
          </mxGeometry>
        </mxCell>
        <mxCell id="W2uqgp0mOW6nzZjrebEl-50" value="&lt;div&gt;&lt;span style=&quot;background-color: transparent; color: light-dark(rgb(0, 0, 0), rgb(255, 255, 255));&quot;&gt;if (numbers[i] &amp;gt; numbers[indexMax])&lt;/span&gt;&lt;/div&gt;&lt;div&gt;&lt;span style=&quot;background-color: transparent; color: light-dark(rgb(0, 0, 0), rgb(255, 255, 255));&quot;&gt;indexMax = i;&lt;/span&gt;&lt;/div&gt;&lt;div&gt;if (numbers[i] &amp;lt; numbers[indexMin])&lt;/div&gt;&lt;div&gt;indexMin = i;&lt;/div&gt;" style="strokeWidth=1;html=1;shape=mxgraph.flowchart.annotation_1;align=left;pointerEvents=1;spacing=2;fontFamily=Times New Roman;" parent="1" vertex="1">
          <mxGeometry x="635" y="822.5" width="20" height="70" as="geometry" />
        </mxCell>
        <mxCell id="W2uqgp0mOW6nzZjrebEl-51" value="" style="endArrow=none;html=1;rounded=0;exitX=1;exitY=0.5;exitDx=0;exitDy=0;entryX=0;entryY=0.5;entryDx=0;entryDy=0;entryPerimeter=0;" parent="1" source="W2uqgp0mOW6nzZjrebEl-40" target="W2uqgp0mOW6nzZjrebEl-50" edge="1">
          <mxGeometry width="50" height="50" relative="1" as="geometry">
            <mxPoint x="660" y="972.5" as="sourcePoint" />
            <mxPoint x="710" y="922.5" as="targetPoint" />
          </mxGeometry>
        </mxCell>
        <mxCell id="U2_r856wV2qcEGmNiE-3-1" value="&lt;font style=&quot;font-family: &amp;quot;Times New Roman&amp;quot;;&quot;&gt;Сообщение об ошибке и&lt;/font&gt;&lt;div style=&quot;font-family: &amp;quot;Times New Roman&amp;quot;;&quot;&gt;повторном вводе&lt;/div&gt;" style="shape=document;whiteSpace=wrap;html=1;boundedLbl=1;" vertex="1" parent="1">
          <mxGeometry x="95" y="640" width="110" height="60" as="geometry" />
        </mxCell>
        <mxCell id="U2_r856wV2qcEGmNiE-3-2" value="&lt;span style=&quot;font-family: &amp;quot;Times New Roman&amp;quot;;&quot;&gt;Вывод результата&lt;/span&gt;" style="shape=document;whiteSpace=wrap;html=1;boundedLbl=1;" vertex="1" parent="1">
          <mxGeometry x="470.25" y="973" width="110" height="60" as="geometry" />
        </mxCell>
      </root>
    </mxGraphModel>
  </diagram>
</mxfile>
